<svg width="50" height="50" viewBox="0 0 50 50" fill="none" xmlns="http://www.w3.org/2000/svg">
<path d="M42.1875 32.4206H37.7525C37.489 31.3085 36.8579 30.3178 35.9614 29.6089C35.0648 28.9 33.9553 28.5144 32.8124 28.5144C31.6695 28.5144 30.56 28.9 29.6634 29.6089C28.7669 30.3178 28.1358 31.3085 27.8723 32.4206H7.8125C7.5017 32.4206 7.20363 32.5441 6.98386 32.7639C6.76409 32.9836 6.64063 33.2817 6.64062 33.5925C6.64063 33.9033 6.76409 34.2014 6.98386 34.4211C7.20363 34.6409 7.5017 34.7644 7.8125 34.7644H27.8723C28.1358 35.8765 28.7669 36.8672 29.6634 37.5761C30.56 38.285 31.6695 38.6706 32.8124 38.6706C33.9553 38.6706 35.0648 38.285 35.9614 37.5761C36.8579 36.8672 37.489 35.8765 37.7525 34.7644H42.1875C42.4983 34.7644 42.7964 34.6409 43.0161 34.4211C43.2359 34.2014 43.3594 33.9033 43.3594 33.5925C43.3594 33.2817 43.2359 32.9836 43.0161 32.7639C42.7964 32.5441 42.4983 32.4206 42.1875 32.4206ZM32.8125 36.3269C32.2717 36.3269 31.743 36.1665 31.2934 35.866C30.8437 35.5656 30.4932 35.1385 30.2863 34.6389C30.0793 34.1393 30.0252 33.5895 30.1307 33.059C30.2362 32.5286 30.4966 32.0414 30.879 31.659C31.2614 31.2766 31.7486 31.0162 32.2791 30.9107C32.8095 30.8052 33.3593 30.8593 33.8589 31.0663C34.3585 31.2732 34.7856 31.6237 35.0861 32.0734C35.3865 32.523 35.5469 33.0517 35.5469 33.5925C35.546 34.3174 35.2577 35.0125 34.7451 35.5251C34.2325 36.0377 33.5374 36.326 32.8125 36.3269ZM7.8125 17.5767H15.3723C15.6358 18.6888 16.2669 19.6795 17.1634 20.3884C18.06 21.0973 19.1695 21.4829 20.3124 21.4829C21.4553 21.4829 22.5648 21.0973 23.4614 20.3884C24.3579 19.6795 24.989 18.6888 25.2525 17.5767H42.1875C42.4983 17.5767 42.7964 17.4532 43.0161 17.2334C43.2359 17.0137 43.3594 16.7156 43.3594 16.4048C43.3594 16.094 43.2359 15.7959 43.0161 15.5762C42.7964 15.3564 42.4983 15.2329 42.1875 15.2329H25.2525C24.989 14.1208 24.3579 13.1301 23.4614 12.4212C22.5648 11.7123 21.4553 11.3267 20.3124 11.3267C19.1695 11.3267 18.06 11.7123 17.1634 12.4212C16.2669 13.1301 15.6358 14.1208 15.3723 15.2329H7.8125C7.5017 15.2329 7.20363 15.3564 6.98386 15.5762C6.76409 15.7959 6.64063 16.094 6.64062 16.4048C6.64063 16.7156 6.76409 17.0137 6.98386 17.2334C7.20363 17.4532 7.5017 17.5767 7.8125 17.5767ZM20.3125 13.6704C20.8533 13.6704 21.382 13.8308 21.8316 14.1313C22.2813 14.4317 22.6318 14.8588 22.8387 15.3584C23.0457 15.858 23.0998 16.4078 22.9943 16.9383C22.8888 17.4687 22.6284 17.9559 22.246 18.3383C21.8636 18.7207 21.3764 18.9811 20.8459 19.0866C20.3155 19.1921 19.7657 19.138 19.2661 18.931C18.7665 18.7241 18.3394 18.3736 18.039 17.9239C17.7385 17.4743 17.5781 16.9456 17.5781 16.4048C17.579 15.6799 17.8673 14.9848 18.3799 14.4722C18.8925 13.9596 19.5876 13.6713 20.3125 13.6704Z" fill="#377DFF"/>
</svg>
