<svg width="50" height="50" viewBox="0 0 50 50" fill="none" xmlns="http://www.w3.org/2000/svg">
<path d="M18.7502 12.5001H10.4168V20.8334H14.5835V16.6667H18.7502V12.5001ZM39.5835 20.8334H35.4168V25.0001H31.2502V29.1667H39.5835V20.8334ZM43.7502 33.3334H6.25016V8.33342H43.7502V33.3334ZM43.7502 4.16675H6.25016C3.93766 4.16675 2.0835 6.02091 2.0835 8.33342V33.3334C2.0835 34.4385 2.52248 35.4983 3.30388 36.2797C4.08529 37.0611 5.14509 37.5001 6.25016 37.5001H20.8335V41.6668H16.6668V45.8334H33.3335V41.6668H29.1668V37.5001H43.7502C44.8552 37.5001 45.915 37.0611 46.6964 36.2797C47.4778 35.4983 47.9168 34.4385 47.9168 33.3334V8.33342C47.9168 7.22835 47.4778 6.16854 46.6964 5.38714C45.915 4.60573 44.8552 4.16675 43.7502 4.16675Z" fill="#377DFF"/>
</svg>
