<svg width="50" height="50" viewBox="0 0 50 50" fill="none" xmlns="http://www.w3.org/2000/svg">
<path d="M27.5 25C27.76 25 28.0125 25.02 28.2625 25.0575C27.2875 25.755 26.405 26.5775 25.6425 27.5H10C9.33696 27.5 8.70107 27.7634 8.23223 28.2322C7.76339 28.7011 7.5 29.337 7.5 30V33.75C7.5 37.2675 11.4475 40 18.75 40C20.1493 40.0094 21.5465 39.8931 22.925 39.6525C23.1325 40.475 23.4175 41.265 23.765 42.02C22.114 42.3499 20.4336 42.5107 18.75 42.5C10.22 42.5 5 38.885 5 33.75V30C5 28.6739 5.52678 27.4021 6.46447 26.4645C7.40215 25.5268 8.67392 25 10 25H27.5Z" fill="#377DFF"/>
<path d="M42.5 16.25C42.5 17.9076 41.8415 19.4973 40.6694 20.6694C39.4973 21.8415 37.9076 22.5 36.25 22.5C34.5924 22.5 33.0027 21.8415 31.8306 20.6694C30.6585 19.4973 30 17.9076 30 16.25C30 14.5924 30.6585 13.0027 31.8306 11.8306C33.0027 10.6585 34.5924 10 36.25 10C37.9076 10 39.4973 10.6585 40.6694 11.8306C41.8415 13.0027 42.5 14.5924 42.5 16.25ZM36.25 12.5C35.2554 12.5 34.3016 12.8951 33.5983 13.5983C32.8951 14.3016 32.5 15.2554 32.5 16.25C32.5 17.2446 32.8951 18.1984 33.5983 18.9017C34.3016 19.6049 35.2554 20 36.25 20C37.2446 20 38.1984 19.6049 38.9016 18.9017C39.6049 18.1984 40 17.2446 40 16.25C40 15.2554 39.6049 14.3016 38.9016 13.5983C38.1984 12.8951 37.2446 12.5 36.25 12.5Z" fill="#377DFF"/>
<path d="M18.75 5C19.8991 5 21.0369 5.22633 22.0985 5.66605C23.1601 6.10578 24.1247 6.7503 24.9372 7.56282C25.7497 8.37533 26.3942 9.33992 26.8339 10.4015C27.2737 11.4631 27.5 12.6009 27.5 13.75C27.5 14.8991 27.2737 16.0369 26.8339 17.0985C26.3942 18.1601 25.7497 19.1247 24.9372 19.9372C24.1247 20.7497 23.1601 21.3942 22.0985 21.8339C21.0369 22.2737 19.8991 22.5 18.75 22.5C16.4294 22.5 14.2038 21.5781 12.5628 19.9372C10.9219 18.2962 10 16.0706 10 13.75C10 11.4294 10.9219 9.20376 12.5628 7.56282C14.2038 5.92187 16.4294 5 18.75 5ZM18.75 7.5C17.0924 7.5 15.5027 8.15848 14.3306 9.33058C13.1585 10.5027 12.5 12.0924 12.5 13.75C12.5 15.4076 13.1585 16.9973 14.3306 18.1694C15.5027 19.3415 17.0924 20 18.75 20C20.4076 20 21.9973 19.3415 23.1694 18.1694C24.3415 16.9973 25 15.4076 25 13.75C25 12.0924 24.3415 10.5027 23.1694 9.33058C21.9973 8.15848 20.4076 7.5 18.75 7.5Z" fill="#377DFF"/>
<path d="M26.2599 31.8001L27.1549 32.6751C27.6311 33.1407 28.0095 33.6968 28.2678 34.3108C28.5262 34.9247 28.6592 35.584 28.6592 36.2501C28.6592 36.9161 28.5262 37.5755 28.2678 38.1894C28.0095 38.8033 27.6311 39.3594 27.1549 39.8251L26.2599 40.7001C26.5849 41.4776 26.9899 42.2101 27.4674 42.8851L28.4549 42.5876C29.1073 42.3921 29.7927 42.332 30.4692 42.4109C31.1457 42.4897 31.7989 42.706 32.3888 43.0464C32.9787 43.3867 33.4929 43.844 33.8997 44.3902C34.3066 44.9364 34.5976 45.5599 34.7549 46.2226L35.0449 47.4326C35.8448 47.5237 36.6524 47.5237 37.4524 47.4326L37.7399 46.2226C37.8971 45.5599 38.1881 44.9364 38.595 44.3902C39.0018 43.844 39.516 43.3867 40.1059 43.0464C40.6958 42.706 41.349 42.4897 42.0255 42.4109C42.702 42.332 43.3875 42.3921 44.0399 42.5876L45.0299 42.8851C45.5049 42.2101 45.9124 41.4776 46.2374 40.7001L45.3424 39.8251C44.8661 39.3594 44.4877 38.8033 44.2294 38.1894C43.9711 37.5755 43.838 36.9161 43.838 36.2501C43.838 35.584 43.9711 34.9247 44.2294 34.3108C44.4877 33.6968 44.8661 33.1407 45.3424 32.6751L46.2374 31.8001C45.9165 31.0295 45.5115 30.2968 45.0299 29.6151L44.0399 29.9126C43.3875 30.1081 42.702 30.1682 42.0255 30.0893C41.349 30.0104 40.6958 29.7941 40.1059 29.4538C39.516 29.1134 39.0018 28.6561 38.595 28.1099C38.1881 27.5638 37.8971 26.9402 37.7399 26.2776L37.4524 25.0676C36.6524 24.9765 35.8448 24.9765 35.0449 25.0676L34.7574 26.2776C34.6001 26.9402 34.3091 27.5638 33.9022 28.1099C33.4954 28.6561 32.9812 29.1134 32.3913 29.4538C31.8014 29.7941 31.1482 30.0104 30.4717 30.0893C29.7952 30.1682 29.1098 30.1081 28.4574 29.9126L27.4674 29.6151C26.9899 30.2901 26.5824 31.0226 26.2599 31.8001ZM36.2474 38.7501C35.5843 38.7501 34.9484 38.4867 34.4796 38.0178C34.0108 37.549 33.7474 36.9131 33.7474 36.2501C33.7474 35.587 34.0108 34.9512 34.4796 34.4823C34.9484 34.0135 35.5843 33.7501 36.2474 33.7501C36.9104 33.7501 37.5463 34.0135 38.0151 34.4823C38.484 34.9512 38.7474 35.587 38.7474 36.2501C38.7474 36.9131 38.484 37.549 38.0151 38.0178C37.5463 38.4867 36.9104 38.7501 36.2474 38.7501Z" fill="#377DFF"/>
</svg>
