<svg width="38" height="44" viewBox="0 0 38 44" fill="none" xmlns="http://www.w3.org/2000/svg">
<path d="M27.5938 12.2344V9.89062C27.5938 9.67578 27.418 9.5 27.2031 9.5H8.45312C8.23828 9.5 8.0625 9.67578 8.0625 9.89062V12.2344C8.0625 12.4492 8.23828 12.625 8.45312 12.625H27.2031C27.418 12.625 27.5938 12.4492 27.5938 12.2344ZM8.45312 16.5312C8.23828 16.5312 8.0625 16.707 8.0625 16.9219V19.2656C8.0625 19.4805 8.23828 19.6562 8.45312 19.6562H17.4375C17.6523 19.6562 17.8281 19.4805 17.8281 19.2656V16.9219C17.8281 16.707 17.6523 16.5312 17.4375 16.5312H8.45312ZM26.8125 22.1953C20.9873 22.1953 16.2656 26.917 16.2656 32.7422C16.2656 38.5674 20.9873 43.2891 26.8125 43.2891C32.6377 43.2891 37.3594 38.5674 37.3594 32.7422C37.3594 26.917 32.6377 22.1953 26.8125 22.1953ZM32.0615 37.9912C30.6602 39.3926 28.7949 40.1641 26.8125 40.1641C24.8301 40.1641 22.9648 39.3926 21.5635 37.9912C20.1621 36.5898 19.3906 34.7246 19.3906 32.7422C19.3906 30.7598 20.1621 28.8945 21.5635 27.4932C22.9648 26.0918 24.8301 25.3203 26.8125 25.3203C28.7949 25.3203 30.6602 26.0918 32.0615 27.4932C33.4629 28.8945 34.2344 30.7598 34.2344 32.7422C34.2344 34.7246 33.4629 36.5898 32.0615 37.9912ZM31.1582 29.0312H28.9951C28.8682 29.0312 28.751 29.0898 28.6777 29.1924L25.5771 33.4795L24.4492 31.9219C24.4131 31.8716 24.3654 31.8307 24.3102 31.8026C24.2549 31.7746 24.1938 31.7602 24.1318 31.7607H21.9785C21.6611 31.7607 21.4756 32.1221 21.6611 32.3809L25.2646 37.3662C25.4209 37.5811 25.7383 37.5811 25.8945 37.3662L31.4707 29.6514C31.6611 29.3926 31.4756 29.0312 31.1582 29.0312ZM15.4844 38.6016H4.15625V4.22656H31.5V21.0234C31.5 21.2383 31.6758 21.4141 31.8906 21.4141H34.625C34.8398 21.4141 35.0156 21.2383 35.0156 21.0234V2.27344C35.0156 1.40918 34.3174 0.710938 33.4531 0.710938H2.20312C1.33887 0.710938 0.640625 1.40918 0.640625 2.27344V40.5547C0.640625 41.4189 1.33887 42.1172 2.20312 42.1172H15.4844C15.6992 42.1172 15.875 41.9414 15.875 41.7266V38.9922C15.875 38.7773 15.6992 38.6016 15.4844 38.6016Z" fill="#377DFF"/>
</svg>
