<svg width="42" height="42" viewBox="0 0 42 42" fill="none" xmlns="http://www.w3.org/2000/svg">
<path d="M30.0832 25.1666C30.2498 23.7916 30.3748 22.4166 30.3748 21C30.3748 19.5833 30.2498 18.2083 30.0832 16.8333H37.1248C37.4582 18.1666 37.6665 19.5625 37.6665 21C37.6665 22.4375 37.4582 23.8333 37.1248 25.1666H30.0832ZM26.3957 36.75C27.6457 34.4375 28.604 31.9375 29.2707 29.3333H35.4165C33.3981 32.8089 30.1959 35.4416 26.3957 36.75ZM25.8748 25.1666H16.1248C15.9165 23.7916 15.7915 22.4166 15.7915 21C15.7915 19.5833 15.9165 18.1875 16.1248 16.8333H25.8748C26.0623 18.1875 26.2082 19.5833 26.2082 21C26.2082 22.4166 26.0623 23.7916 25.8748 25.1666ZM20.9998 37.5833C19.2707 35.0833 17.8748 32.3125 17.0207 29.3333H24.979C24.1248 32.3125 22.729 35.0833 20.9998 37.5833ZM12.6665 12.6666H6.58317C8.58079 9.18166 11.7807 6.54472 15.5832 5.24996C14.3332 7.56246 13.3957 10.0625 12.6665 12.6666ZM6.58317 29.3333H12.6665C13.3957 31.9375 14.3332 34.4375 15.5832 36.75C11.7886 35.4409 8.59327 32.8077 6.58317 29.3333ZM4.87484 25.1666C4.5415 23.8333 4.33317 22.4375 4.33317 21C4.33317 19.5625 4.5415 18.1666 4.87484 16.8333H11.9165C11.7498 18.2083 11.6248 19.5833 11.6248 21C11.6248 22.4166 11.7498 23.7916 11.9165 25.1666H4.87484ZM20.9998 4.39579C22.729 6.89579 24.1248 9.68746 24.979 12.6666H17.0207C17.8748 9.68746 19.2707 6.89579 20.9998 4.39579ZM35.4165 12.6666H29.2707C28.6186 10.0863 27.6531 7.59558 26.3957 5.24996C30.229 6.56246 33.4165 9.20829 35.4165 12.6666ZM20.9998 0.166626C9.479 0.166626 0.166504 9.54163 0.166504 21C0.166504 26.5253 2.36144 31.8243 6.26845 35.7314C8.203 37.6659 10.4996 39.2005 13.0273 40.2475C15.5549 41.2944 18.264 41.8333 20.9998 41.8333C26.5252 41.8333 31.8242 39.6384 35.7312 35.7314C39.6382 31.8243 41.8332 26.5253 41.8332 21C41.8332 18.2641 41.2943 15.555 40.2473 13.0274C39.2004 10.4998 37.6658 8.20312 35.7312 6.26857C33.7967 4.33401 31.5 2.79944 28.9724 1.75247C26.4448 0.705496 23.7357 0.166626 20.9998 0.166626Z" fill="#377DFF"/>
</svg>
