<svg width="42" height="40" viewBox="0 0 42 40" fill="none" xmlns="http://www.w3.org/2000/svg">
<path d="M40.341 14.2412L27.9435 12.4395L22.4015 1.20412C22.2502 0.896503 22.0011 0.647479 21.6935 0.496112C20.922 0.115252 19.9845 0.432635 19.5988 1.20412L14.0568 12.4395L1.65935 14.2412C1.31755 14.2901 1.00505 14.4512 0.765793 14.6953C0.476543 14.9926 0.317154 15.3926 0.322647 15.8074C0.328141 16.2221 0.498068 16.6177 0.79509 16.9072L9.76482 25.6524L7.64568 38.001C7.59598 38.2883 7.62777 38.5837 7.73743 38.8538C7.8471 39.1239 8.03025 39.3579 8.26613 39.5292C8.502 39.7005 8.78116 39.8023 9.07194 39.823C9.36273 39.8438 9.6535 39.7826 9.9113 39.6465L21.0002 33.8164L32.089 39.6465C32.3918 39.8076 32.7433 39.8613 33.0802 39.8028C33.9299 39.6563 34.5011 38.8506 34.3547 38.001L32.2355 25.6524L41.2052 16.9072C41.4494 16.668 41.6105 16.3555 41.6593 16.0137C41.7912 15.1592 41.1955 14.3682 40.341 14.2412ZM28.4611 24.4219L30.2238 34.6905L21.0002 29.8467L11.7765 34.6953L13.5392 24.4268L6.07829 17.1514L16.3908 15.6524L21.0002 6.31154L25.6095 15.6524L35.922 17.1514L28.4611 24.4219Z" fill="#377DFF"/>
</svg>
