<svg width="16" height="16" viewBox="0 0 16 16" fill="none" xmlns="http://www.w3.org/2000/svg">
<path d="M10.6999 8C10.6999 6.5 9.49993 5.3 7.99993 5.3C6.49993 5.3 5.29993 6.5 5.29993 8C5.29993 9.5 6.49993 10.7 7.99993 10.7C9.49993 10.7 10.6999 9.5 10.6999 8ZM12.0999 8C12.0999 10.3 10.2999 12.1 7.99993 12.1C5.69993 12.1 3.89993 10.3 3.89993 8C3.89993 5.7 5.69993 3.9 7.99993 3.9C10.2999 3.9 12.0999 5.7 12.0999 8ZM13.1999 3.7C13.1999 4.3 12.7999 4.7 12.1999 4.7C11.5999 4.7 11.1999 4.3 11.1999 3.7C11.1999 3.1 11.5999 2.7 12.1999 2.7C12.7999 2.7 13.1999 3.2 13.1999 3.7ZM7.99993 1.4C6.79993 1.4 4.29993 1.3 3.29993 1.7C2.59993 2 1.99993 2.6 1.79993 3.3C1.39993 4.3 1.49993 6.8 1.49993 8C1.49993 9.2 1.39993 11.7 1.79993 12.7C1.99993 13.4 2.59993 14 3.29993 14.2C4.29993 14.6 6.89993 14.5 7.99993 14.5C9.09993 14.5 11.6999 14.6 12.6999 14.2C13.3999 13.9 13.8999 13.4 14.1999 12.7C14.5999 11.6 14.4999 9.1 14.4999 8C14.4999 6.9 14.5999 4.3 14.1999 3.3C13.9999 2.6 13.3999 2 12.6999 1.8C11.6999 1.3 9.19993 1.4 7.99993 1.4ZM15.9999 8V11.3C15.9999 12.5 15.5999 13.7 14.6999 14.7C13.7999 15.6 12.5999 16 11.2999 16H4.69993C3.49993 16 2.29993 15.6 1.29993 14.7C0.499931 13.8 -6.86646e-05 12.6 -6.86646e-05 11.3V8V4.7C-6.86646e-05 3.4 0.499931 2.2 1.29993 1.3C2.29993 0.5 3.49993 0 4.69993 0H11.2999C12.4999 0 13.6999 0.4 14.6999 1.3C15.4999 2.2 15.9999 3.4 15.9999 4.7V8Z" fill="white"/>
</svg>
