<svg width="30" height="30" viewBox="0 0 30 30" fill="none" xmlns="http://www.w3.org/2000/svg">
<path fill-rule="evenodd" clip-rule="evenodd" d="M15 0.9375C15.4144 0.9375 15.8118 1.10212 16.1049 1.39515C16.3979 1.68817 16.5625 2.0856 16.5625 2.5V15C16.5625 15.4144 16.3979 15.8118 16.1049 16.1049C15.8118 16.3979 15.4144 16.5625 15 16.5625H2.5C2.0856 16.5625 1.68817 16.3979 1.39515 16.1049C1.10212 15.8118 0.9375 15.4144 0.9375 15C0.9375 14.5856 1.10212 14.1882 1.39515 13.8951C1.68817 13.6021 2.0856 13.4375 2.5 13.4375H13.4375V2.5C13.4375 2.0856 13.6021 1.68817 13.8951 1.39515C14.1882 1.10212 14.5856 0.9375 15 0.9375Z" fill="#377DFF"/>
<path fill-rule="evenodd" clip-rule="evenodd" d="M13.4375 15C13.4375 14.5856 13.6021 14.1882 13.8951 13.8951C14.1882 13.6021 14.5856 13.4375 15 13.4375H27.5C27.9144 13.4375 28.3118 13.6021 28.6049 13.8951C28.8979 14.1882 29.0625 14.5856 29.0625 15C29.0625 15.4144 28.8979 15.8118 28.6049 16.1049C28.3118 16.3979 27.9144 16.5625 27.5 16.5625H16.5625V27.5C16.5625 27.9144 16.3979 28.3118 16.1049 28.6049C15.8118 28.8979 15.4144 29.0625 15 29.0625C14.5856 29.0625 14.1882 28.8979 13.8951 28.6049C13.6021 28.3118 13.4375 27.9144 13.4375 27.5V15Z" fill="#377DFF"/>
</svg>
