<svg width="24" height="24" viewBox="0 0 24 24" fill="none" xmlns="http://www.w3.org/2000/svg">
<path fill-rule="evenodd" clip-rule="evenodd" d="M18.8 12.3911C18.8 12.8239 18.7559 13.2562 18.6694 13.6775C18.585 14.0888 18.46 14.4926 18.2962 14.8786C18.1362 15.2578 17.9378 15.6232 17.7059 15.964C17.4775 16.3026 17.2143 16.6203 16.9252 16.9098C16.6355 17.1982 16.3168 17.4606 15.9783 17.69C15.6364 17.9203 15.2705 18.1185 14.8911 18.2792C14.5045 18.4421 14.0998 18.5669 13.6888 18.6512C13.267 18.7379 12.8332 18.7822 12.3997 18.7822C11.9659 18.7822 11.5322 18.7379 11.1109 18.6512C10.6993 18.5669 10.2946 18.4421 9.90834 18.2792C9.52895 18.1185 9.16267 17.9203 8.82078 17.69C8.48233 17.4606 8.16356 17.1982 7.87449 16.9098C7.5851 16.6203 7.32195 16.3026 7.09319 15.964C6.86256 15.6232 6.66378 15.2578 6.50316 14.8786C6.33938 14.4926 6.21408 14.0888 6.12938 13.6775C6.04376 13.2562 6 12.8239 6 12.3911C6 11.958 6.04374 11.5248 6.12941 11.1045C6.2141 10.6931 6.33941 10.2887 6.50318 9.90333C6.66381 9.52386 6.86258 9.15813 7.09322 8.81734C7.32198 8.47845 7.58513 8.16137 7.87451 7.87145C8.16359 7.58309 8.48235 7.32129 8.82081 7.09224C9.16269 6.86099 9.52898 6.66285 9.90836 6.50181C10.2946 6.33857 10.6993 6.21345 11.1109 6.12982C11.5322 6.0437 11.966 6 12.3997 6C12.8332 6 13.267 6.0437 13.6888 6.12982C14.0998 6.21347 14.5045 6.33859 14.8911 6.50181C15.2705 6.66282 15.6365 6.86099 15.9783 7.09224C16.3168 7.32129 16.6356 7.58309 16.9253 7.87145C17.2143 8.16137 17.4775 8.47845 17.7059 8.81734C17.9378 9.15813 18.1362 9.52389 18.2962 9.90333C18.46 10.2887 18.585 10.6931 18.6694 11.1045C18.7559 11.5248 18.8 11.958 18.8 12.3911ZM10.0677 7.45454C8.54353 8.17324 7.40597 9.57566 7.05126 11.2658C7.19535 11.2671 9.47297 11.2958 12.0972 10.5995C11.1512 8.92124 10.1405 7.55161 10.0677 7.45454ZM12.55 11.44C9.7358 12.2813 7.03533 12.2207 6.93846 12.217C6.93688 12.2757 6.93408 12.3324 6.93408 12.3911C6.93408 13.7932 7.46379 15.0714 8.33446 16.0379C8.33258 16.0351 9.82831 13.3854 12.7778 12.4329C12.8491 12.4092 12.9216 12.388 12.9935 12.3674C12.8563 12.0572 12.7066 11.7464 12.55 11.44ZM16.0093 8.29494C15.047 7.44766 13.7835 6.93372 12.3997 6.93372C11.9556 6.93372 11.5246 6.9874 11.1118 7.08663C11.1937 7.1965 12.2203 8.55646 13.155 10.2703C15.2173 9.49827 15.9958 8.3149 16.0093 8.29494ZM13.366 13.2718C13.3538 13.2758 13.3417 13.2793 13.3298 13.2836C10.105 14.4062 9.05187 16.6686 9.04047 16.6933C9.96835 17.4138 11.1322 17.8485 12.3997 17.8485C13.1566 17.8485 13.8776 17.6946 14.5336 17.416C14.4526 16.9392 14.1351 15.2677 13.366 13.2718ZM15.4539 16.9173C16.6812 16.0904 17.5528 14.7772 17.7959 13.2561C17.6834 13.2199 16.1542 12.7365 14.3901 13.019C15.107 14.9863 15.3983 16.5884 15.4539 16.9173ZM13.5757 11.0836C13.7026 11.3438 13.8254 11.6087 13.9389 11.875C13.9792 11.9705 14.0186 12.0641 14.057 12.1577C15.9346 11.9218 17.7844 12.3187 17.8635 12.3349C17.851 11.0411 17.3875 9.85369 16.6206 8.92407C16.6103 8.9387 15.7337 10.2035 13.5757 11.0836Z" fill="white"/>
</svg>
