<svg width="270" height="55" viewBox="0 0 270 55" fill="none" xmlns="http://www.w3.org/2000/svg">
<path d="M93.59 18.09L87.53 39H84.47L79.61 22.17L74.57 39L71.54 39.03L65.69 18.09H68.6L73.16 35.82L78.2 18.09H81.26L86.06 35.76L90.65 18.09H93.59ZM111.578 30.15C111.578 30.67 111.548 31.22 111.488 31.8H98.3476C98.4476 33.42 98.9976 34.69 99.9976 35.61C101.018 36.51 102.248 36.96 103.688 36.96C104.868 36.96 105.848 36.69 106.628 36.15C107.428 35.59 107.988 34.85 108.308 33.93H111.248C110.808 35.51 109.928 36.8 108.608 37.8C107.288 38.78 105.648 39.27 103.688 39.27C102.128 39.27 100.728 38.92 99.4876 38.22C98.2676 37.52 97.3076 36.53 96.6076 35.25C95.9076 33.95 95.5576 32.45 95.5576 30.75C95.5576 29.05 95.8976 27.56 96.5776 26.28C97.2576 25 98.2076 24.02 99.4276 23.34C100.668 22.64 102.088 22.29 103.688 22.29C105.248 22.29 106.628 22.63 107.828 23.31C109.028 23.99 109.948 24.93 110.588 26.13C111.248 27.31 111.578 28.65 111.578 30.15ZM108.758 29.58C108.758 28.54 108.528 27.65 108.068 26.91C107.608 26.15 106.978 25.58 106.178 25.2C105.398 24.8 104.528 24.6 103.568 24.6C102.188 24.6 101.008 25.04 100.028 25.92C99.0676 26.8 98.5176 28.02 98.3776 29.58H108.758ZM117.911 25.62C118.471 24.64 119.291 23.84 120.371 23.22C121.451 22.6 122.681 22.29 124.061 22.29C125.541 22.29 126.871 22.64 128.051 23.34C129.231 24.04 130.161 25.03 130.841 26.31C131.521 27.57 131.861 29.04 131.861 30.72C131.861 32.38 131.521 33.86 130.841 35.16C130.161 36.46 129.221 37.47 128.021 38.19C126.841 38.91 125.521 39.27 124.061 39.27C122.641 39.27 121.391 38.96 120.311 38.34C119.251 37.72 118.451 36.93 117.911 35.97V39H115.181V16.8H117.911V25.62ZM129.071 30.72C129.071 29.48 128.821 28.4 128.321 27.48C127.821 26.56 127.141 25.86 126.281 25.38C125.441 24.9 124.511 24.66 123.491 24.66C122.491 24.66 121.561 24.91 120.701 25.41C119.861 25.89 119.181 26.6 118.661 27.54C118.161 28.46 117.911 29.53 117.911 30.75C117.911 31.99 118.161 33.08 118.661 34.02C119.181 34.94 119.861 35.65 120.701 36.15C121.561 36.63 122.491 36.87 123.491 36.87C124.511 36.87 125.441 36.63 126.281 36.15C127.141 35.65 127.821 34.94 128.321 34.02C128.821 33.08 129.071 31.98 129.071 30.72ZM148.325 18.09V20.31H142.625V39H139.895V20.31H134.165V18.09H148.325ZM166.685 30.15C166.685 30.67 166.655 31.22 166.595 31.8H153.455C153.555 33.42 154.105 34.69 155.105 35.61C156.125 36.51 157.355 36.96 158.795 36.96C159.975 36.96 160.955 36.69 161.735 36.15C162.535 35.59 163.095 34.85 163.415 33.93H166.355C165.915 35.51 165.035 36.8 163.715 37.8C162.395 38.78 160.755 39.27 158.795 39.27C157.235 39.27 155.835 38.92 154.595 38.22C153.375 37.52 152.415 36.53 151.715 35.25C151.015 33.95 150.665 32.45 150.665 30.75C150.665 29.05 151.005 27.56 151.685 26.28C152.365 25 153.315 24.02 154.535 23.34C155.775 22.64 157.195 22.29 158.795 22.29C160.355 22.29 161.735 22.63 162.935 23.31C164.135 23.99 165.055 24.93 165.695 26.13C166.355 27.31 166.685 28.65 166.685 30.15ZM163.865 29.58C163.865 28.54 163.635 27.65 163.175 26.91C162.715 26.15 162.085 25.58 161.285 25.2C160.505 24.8 159.635 24.6 158.675 24.6C157.295 24.6 156.115 25.04 155.135 25.92C154.175 26.8 153.625 28.02 153.485 29.58H163.865ZM169.269 30.75C169.269 29.05 169.609 27.57 170.289 26.31C170.969 25.03 171.909 24.04 173.109 23.34C174.329 22.64 175.719 22.29 177.279 22.29C179.299 22.29 180.959 22.78 182.259 23.76C183.579 24.74 184.449 26.1 184.869 27.84H181.929C181.649 26.84 181.099 26.05 180.279 25.47C179.479 24.89 178.479 24.6 177.279 24.6C175.719 24.6 174.459 25.14 173.499 26.22C172.539 27.28 172.059 28.79 172.059 30.75C172.059 32.73 172.539 34.26 173.499 35.34C174.459 36.42 175.719 36.96 177.279 36.96C178.479 36.96 179.479 36.68 180.279 36.12C181.079 35.56 181.629 34.76 181.929 33.72H184.869C184.429 35.4 183.549 36.75 182.229 37.77C180.909 38.77 179.259 39.27 177.279 39.27C175.719 39.27 174.329 38.92 173.109 38.22C171.909 37.52 170.969 36.53 170.289 35.25C169.609 33.97 169.269 32.47 169.269 30.75ZM196.671 22.26C197.911 22.26 199.031 22.53 200.031 23.07C201.031 23.59 201.811 24.38 202.371 25.44C202.951 26.5 203.241 27.79 203.241 29.31V39H200.541V29.7C200.541 28.06 200.131 26.81 199.311 25.95C198.491 25.07 197.371 24.63 195.951 24.63C194.511 24.63 193.361 25.08 192.501 25.98C191.661 26.88 191.241 28.19 191.241 29.91V39H188.511V16.8H191.241V24.9C191.781 24.06 192.521 23.41 193.461 22.95C194.421 22.49 195.491 22.26 196.671 22.26Z" fill="#377DFF"/>
<g clip-path="url(#clip0_1_272)">
<path d="M21.3229 40.8321H16.8253L10.5914 30.0946C10.2902 29.5781 9.62392 29.3996 9.10496 29.6993C8.586 29.9989 8.40661 30.6621 8.70773 31.1785L14.3074 40.8321H9.7905L2.35209 28.0032L9.7905 15.1679H23.2834L28.1975 23.6419C27.3966 24.3943 26.8905 25.4591 26.8905 26.6387C26.8905 28.9086 28.7485 30.7577 31.0294 30.7577C33.3102 30.7577 35.1682 28.9086 35.1682 26.6387C35.1682 24.3688 33.3102 22.5197 31.0294 22.5197C30.7154 22.5197 30.4143 22.5579 30.1196 22.6217L24.8595 13.542C24.6609 13.204 24.3021 13 23.9113 13H9.16262C8.7718 13 8.41302 13.204 8.22081 13.542L0.148122 27.4612C-0.0440844 27.7992 -0.0440844 28.2072 0.148122 28.5452L8.22081 42.4644C8.41302 42.8023 8.77821 43.0064 9.16262 43.0064H21.3229C21.9252 43.0064 22.4121 42.5218 22.4121 41.9224C22.4121 41.3167 21.9252 40.8321 21.3229 40.8321ZM31.0358 24.6876C32.1185 24.6876 32.9963 25.5611 32.9963 26.6387C32.9963 27.7163 32.1185 28.5898 31.0358 28.5898C29.953 28.5898 29.0753 27.7163 29.0753 26.6387C29.0753 25.5675 29.953 24.6876 31.0358 24.6876ZM50.1475 27.4612L42.0748 13.542C41.8762 13.204 41.5174 13 41.1266 13H28.9663C28.3641 13 27.8772 13.4846 27.8772 14.084C27.8772 14.6833 28.3641 15.1679 28.9663 15.1679H33.464L39.6979 25.9054C39.8965 26.2561 40.2681 26.4474 40.6397 26.4474C40.8255 26.4474 41.0113 26.4028 41.1843 26.3007C41.7032 26.0011 41.8826 25.3379 41.5815 24.8215L35.9819 15.1679H40.4987L47.9436 27.9968L40.4987 40.8321H27.0058L22.0917 32.3581C22.8926 31.6057 23.3987 30.5409 23.3987 29.3613C23.3987 27.0914 21.5407 25.2423 19.2599 25.2423C16.979 25.2423 15.121 27.0914 15.121 29.3613C15.121 31.6312 16.979 33.4803 19.2599 33.4803C19.5738 33.4803 19.875 33.4421 20.1697 33.3783L25.4361 42.458C25.6283 42.796 25.9935 43 26.3779 43H41.1266C41.5174 43 41.8762 42.796 42.0684 42.458L50.1411 28.5388C50.3397 28.2072 50.3397 27.7928 50.1475 27.4612ZM19.2599 31.3124C18.1771 31.3124 17.2994 30.4389 17.2994 29.3613C17.2994 28.2837 18.1771 27.4102 19.2599 27.4102C20.3427 27.4102 21.2204 28.2837 21.2204 29.3613C21.2204 30.4389 20.3427 31.3124 19.2599 31.3124Z" fill="url(#paint0_linear_1_272)"/>
</g>
<defs>
<linearGradient id="paint0_linear_1_272" x1="25.1474" y1="13" x2="25.1474" y2="43.0064" gradientUnits="userSpaceOnUse">
<stop stop-color="#377DFF"/>
<stop offset="1" stop-color="#8FBCFF"/>
</linearGradient>
<clipPath id="clip0_1_272">
<rect width="50.2941" height="30" fill="white" transform="translate(0 13)"/>
</clipPath>
</defs>
</svg>
